<svg
  xmlns="http://www.w3.org/2000/svg"
  xmlns:xlink="http://www.w3.org/1999/xlink" width="40px" height="40px" viewBox="0 0 40 40" version="1.1">
  <!-- Generator: Sketch 47 (45396) - http://www.bohemiancoding.com/sketch -->
  <title>button-play</title>
  <desc>Created with Sketch.</desc>
  <defs/>
  <g id="视频频道" stroke="none" stroke-width="1" fill="none" fill-rule="evenodd">
    <g transform="translate(-168.000000, -412.000000)" id="视频1-copy">
      <g transform="translate(0.000000, 327.000000)">
        <g id="播放按钮" transform="translate(168.000000, 85.000000)">
          <circle id="Oval-2" fill-opacity="0.402994792" fill="#000000" cx="20" cy="20" r="20"/>
          <path d="M14.3466676,11.9808512 L14.3466676,11.9808512 C13.2952565,17.273095 13.3549012,22.7324474 14.5214404,27.9992 L14.5304565,28.0409772 C14.6552942,28.6031984 15.2288542,28.932459 15.7642693,28.7490644 L15.7656564,28.7490644 C20.7910684,27.0255801 25.4017417,24.2343003 29.293211,20.5586196 L29.2939045,20.5586196 C29.7086432,20.1663393 29.7010142,19.4943646 29.276566,19.1127056 L29.2224696,19.0638476 C25.261646,15.5007527 20.606586,12.8355125 15.5638354,11.2437324 L15.5631419,11.2437324 C15.024259,11.0737915 14.4590215,11.4157976 14.3466676,11.9808512" id="Fill-1" fill="#3eaf7c"/>
        </g>
      </g>
    </g>
  </g>
</svg>